Coordinates
version=1
nRows=32
nColumns=22
inDegrees=yes

Units are S.I. units (second, meters, Newtons, ...)
If the header above contains a line with 'inDegrees', this indicates whether rotational values are in degrees (yes) or radians (no).

endheader
time	pelvis_tilt	pelvis_list	pelvis_rotation	pelvis_tx	pelvis_ty	pelvis_tz	hip_flexion_r	hip_adduction_r	hip_rotation_r	knee_angle_r	ankle_angle_r	subtalar_angle_r	hip_flexion_l	hip_adduction_l	hip_rotation_l	knee_angle_l	ankle_angle_l	subtalar_angle_l	lumbar_extension	lumbar_bending	lumbar_rotation
      1.18000000	     -1.37268526	     -2.13412914	    -33.14798797	     -0.93839384	      0.90298058	     -0.41950561	     16.33246875	      1.37917666	      0.86432477	    -42.90516166	     17.27591281	     -8.24178405	     -0.71628029	      0.40353836	    -12.08943252	    -17.34851638	     19.78139861	     -5.33140702	     -8.79058878	      0.72345490	      1.88277039
      1.19000000	     -1.34685271	     -2.31990470	    -32.92860757	     -0.93687694	      0.90330015	     -0.41967897	     17.12875784	      1.44120212	      0.18434960	    -43.74734728	     17.42078120	     -8.99634874	     -0.99147699	      0.29594801	    -11.94070642	    -17.20925401	     19.80050983	     -5.29763565	     -9.12924897	      0.89726230	      1.56051531
      1.20000000	     -1.34553265	     -2.50244613	    -32.67115807	     -0.93523934	      0.90358485	     -0.41980241	     17.87120258	      1.48374431	     -0.57637935	    -44.32408030	     17.58308783	     -9.66923247	     -1.24800007	      0.17040448	    -11.77226046	    -17.06715544	     19.82670855	     -5.25371072	     -9.42949203	      1.08622718	      1.23554740
      1.21000000	     -1.36760065	     -2.68065083	    -32.39800149	     -0.93348603	      0.90382622	     -0.41984681	     18.56492292	      1.51531864	     -1.37714001	    -44.64663287	     17.74063120	    -10.23229024	     -1.49551257	      0.02980315	    -11.60005053	    -16.91044898	     19.86632578	     -5.20207330	     -9.68903020	      1.28749841	      0.93115080
      1.22000000	     -1.38974222	     -2.83262014	    -32.11985188	     -0.93162405	      0.90400846	     -0.41978909	     19.21727769	      1.51033745	     -2.19160953	    -44.75409623	     17.85827305	    -10.48091431	     -1.72949985	     -0.09799627	    -11.47889849	    -16.76819452	     19.94220686	     -5.15762063	     -9.91861922	      1.46127075	      0.61399364
      1.23000000	     -1.44693249	     -3.00802018	    -31.86224442	     -0.92964204	      0.90417021	     -0.41955706	     19.79990011	      1.56754450	     -2.95616210	    -44.59293341	     17.98882239	    -11.11226216	     -1.98737525	     -0.26174218	    -11.30110691	    -16.57267692	     19.98543648	     -5.08380044	    -10.10717818	      1.67387270	      0.38955633
      1.24000000	     -1.49480138	     -3.13867004	    -31.61538345	     -0.92755651	      0.90423093	     -0.41922000	     20.36691780	      1.57113013	     -3.70841860	    -44.27542773	     18.04400335	    -11.25873753	     -2.20907497	     -0.39463590	    -11.21528888	    -16.43652383	     20.03409611	     -5.05010058	    -10.26713528	      1.83702354	      0.16158805
      1.25000000	     -1.54217963	     -3.27291395	    -31.40116613	     -0.92533200	      0.90426688	     -0.41869728	     20.85868823	      1.60592034	     -4.38164743	    -43.74205337	     18.06858960	    -11.41243842	     -2.47234642	     -0.52162062	    -11.08818163	    -16.26103630	     20.10792742	     -5.00817281	    -10.41118160	      1.99718675	      0.00268614
      1.26000000	     -1.57226380	     -3.40322392	    -31.21787242	     -0.92299999	      0.90425594	     -0.41799008	     21.29158742	      1.65212285	     -4.98673160	    -43.05190991	     18.07225478	    -11.51699636	     -2.76322247	     -0.63983020	    -10.99253602	    -16.09255690	     20.19088047	     -4.97292760	    -10.55827749	      2.13461120	     -0.11300831
      1.27000000	     -1.59299188	     -3.52573081	    -31.06076785	     -0.92054652	      0.90418637	     -0.41713213	     21.67024962	      1.71210013	     -5.51239562	    -42.20488301	     18.05108818	    -11.54405323	     -3.07292447	     -0.74454801	    -10.90875217	    -15.92644089	     20.29287945	     -4.94961983	    -10.70033583	      2.25783240	     -0.18695839
      1.28000000	     -1.60139534	     -3.65393168	    -30.91592568	     -0.91798198	      0.90407087	     -0.41610417	     21.98358680	      1.79253976	     -5.98398416	    -41.21344662	     18.00562745	    -11.48331143	     -3.40326312	     -0.85303540	    -10.82839804	    -15.77542270	     20.42033595	     -4.94024816	    -10.84754801	      2.36940891	     -0.24860346
      1.29000000	     -1.60112998	     -3.78274435	    -30.77628434	     -0.91530178	      0.90389300	     -0.41494245	     22.24302181	      1.88806331	     -6.40033339	    -40.09770003	     17.93805284	    -11.32383518	     -3.74477771	     -0.96081498	    -10.75569936	    -15.63955409	     20.57136654	     -4.94527985	    -10.99818937	      2.47412828	     -0.29951048
      1.30000000	     -1.55210309	     -3.92213235	    -30.63541285	     -0.91247399	      0.90370853	     -0.41365838	     22.40766593	      1.97171990	     -6.79897822	    -38.87782850	     17.84278920	    -10.88330678	     -4.15558693	     -1.05102774	    -10.68659367	    -15.49101706	     20.72938504	     -4.96521363	    -11.19583721	      2.56015611	     -0.34708533
      1.31000000	     -1.58210749	     -4.04430960	    -30.47737730	     -0.90961863	      0.90331960	     -0.41227408	     22.61702991	      2.10853512	     -7.13121223	    -37.55234274	     17.72539589	    -10.60231995	     -4.43057823	     -1.18770433	    -10.59960467	    -15.44860702	     20.94692140	     -4.98310765	    -11.30506698	      2.67293168	     -0.42557870
      1.32000000	     -1.55503380	     -4.17158495	    -30.31240335	     -0.90666463	      0.90292892	     -0.41078690	     22.73385279	      2.22963753	     -7.42188198	    -36.15290132	     17.61906369	    -10.01018544	     -4.77834545	     -1.29205932	    -10.44013185	    -15.38670581	     21.14211912	     -5.00197781	    -11.47724699	      2.75130452	     -0.47992588
      1.33000000	     -1.57183429	     -4.28627254	    -30.11842117	     -0.90367516	      0.90237749	     -0.40924583	     22.87016607	      2.36667145	     -7.69440433	    -34.68931082	     17.48218788	     -9.48274358	     -5.02925581	     -1.42556502	    -10.26006965	    -15.41881833	     21.38545954	     -5.01233771	    -11.60353020	      2.84654232	     -0.56858988
      1.34000000	     -1.62979320	     -4.38469116	    -29.89992319	     -0.90065938	      0.90167115	     -0.40761020	     23.03008019	      2.51774692	     -7.94514295	    -33.18166354	     17.31541794	     -9.10210909	     -5.19768282	     -1.58565207	    -10.07123833	    -15.52023363	     21.66810885	     -5.01422499	    -11.67977421	      2.94322170	     -0.69936070
      1.35000000	     -1.63453710	     -4.48289102	    -29.66467250	     -0.89755438	      0.90095758	     -0.40595574	     23.11540941	      2.63310909	     -8.18436055	    -31.64672999	     17.16025097	     -8.36228916	     -5.42029096	     -1.70946638	     -9.79082071	    -15.61921112	     21.92267171	     -5.00025069	    -11.82122217	      3.01890940	     -0.79979697
      1.36000000	     -1.68489143	     -4.55629139	    -29.42062140	     -0.89440177	      0.90008844	     -0.40418958	     23.23820478	      2.75646505	     -8.39643253	    -30.10033369	     16.96803802	     -7.77039938	     -5.56432945	     -1.85248386	     -9.52740214	    -15.77096408	     22.21568722	     -4.96623877	    -11.89935848	      3.09411652	     -0.93611009
      1.37000000	     -1.73032642	     -4.62534504	    -29.17765621	     -0.89115486	      0.89915607	     -0.40233268	     23.33790418	      2.87482525	     -8.58851286	    -28.55743105	     16.77329286	     -7.20618897	     -5.70352980	     -1.99683505	     -9.26735510	    -15.95404464	     22.51905597	     -4.90480793	    -11.98170809	      3.16706013	     -1.05591509
      1.38000000	     -1.79258689	     -4.67677732	    -28.95867615	     -0.88779237	      0.89813202	     -0.40032963	     23.44448043	      2.99660057	     -8.73056978	    -27.03577808	     16.54857787	     -6.78462151	     -5.82909064	     -2.14196965	     -9.06600765	    -16.14509094	     22.83792999	     -4.83074210	    -12.02840149	      3.23646525	     -1.18056455
      1.39000000	     -1.81324795	     -4.73545041	    -28.76739560	     -0.88425196	      0.89712985	     -0.39816018	     23.48649114	      3.10718178	     -8.86175011	    -25.55565256	     16.36024243	     -6.08658422	     -6.05475233	     -2.26491344	     -8.84563245	    -16.26786996	     23.10186332	     -4.67279432	    -12.11033839	      3.28646193	     -1.22037634
      1.40000000	     -1.86584164	     -4.77635787	    -28.59276943	     -0.88058397	      0.89603014	     -0.39583243	     23.55435382	      3.22533224	     -8.95426574	    -24.13532645	     16.13866735	     -5.69015161	     -6.24418627	     -2.40402407	     -8.71559526	    -16.41399085	     23.40551599	     -4.53842865	    -12.13765907	      3.34289422	     -1.29639254
      1.41000000	     -1.88072996	     -4.83236513	    -28.42891970	     -0.87673901	      0.89496519	     -0.39335354	     23.56356292	      3.33300230	     -9.05936010	    -22.79674718	     15.96292721	     -5.11941677	     -6.52453728	     -2.53453484	     -8.55202726	    -16.50428714	     23.65194653	     -4.29863395	    -12.20180347	      3.39309426	     -1.30884121
      1.42000000	     -1.92332564	     -4.88319995	    -28.25850089	     -0.87273773	      0.89382808	     -0.39074274	     23.59428863	      3.44119355	     -9.16803527	    -21.56283498	     15.77519480	     -4.78240259	     -6.78378622	     -2.69010062	     -8.44200433	    -16.60422481	     23.93232135	     -4.10572128	    -12.22268671	      3.46347699	     -1.37515609
      1.43000000	     -1.96110776	     -4.93886474	    -28.08210607	     -0.86860403	      0.89267804	     -0.38804763	     23.62067085	      3.53719689	     -9.28643740	    -20.45957143	     15.59677307	     -4.50735435	     -7.06643815	     -2.84557980	     -8.27009449	    -16.69283478	     24.20157010	     -3.90146596	    -12.24990060	      3.54308772	     -1.39589320
      1.44000000	     -1.97070432	     -5.02097284	    -27.87901648	     -0.86428282	      0.89156515	     -0.38525090	     23.59999212	      3.62049887	     -9.45473956	    -19.49523074	     15.48211669	     -4.20537670	     -7.40509461	     -3.02371720	     -8.10997874	    -16.77190083	     24.44255551	     -3.64013319	    -12.31124692	      3.64620569	     -1.47579189
      1.45000000	     -1.97536558	     -5.10925944	    -27.66502907	     -0.85982138	      0.89044688	     -0.38235177	     23.58339380	      3.69066828	     -9.63920411	    -18.70751301	     15.39291700	     -3.95933378	     -7.76220870	     -3.21135248	     -7.94020455	    -16.84952095	     24.65845641	     -3.37332816	    -12.37776474	      3.75864855	     -1.57404108
      1.46000000	     -1.96993401	     -5.22141270	    -27.44048745	     -0.85521091	      0.88934698	     -0.37936284	     23.55510436	      3.75806246	     -9.87166254	    -18.10238852	     15.32432818	     -3.78332986	     -8.14904063	     -3.42093361	     -7.75790934	    -16.93161229	     24.85199897	     -3.10466124	    -12.46662459	      3.90296478	     -1.69367548
      1.47000000	     -1.95636298	     -5.34819252	    -27.20567931	     -0.85045407	      0.88825985	     -0.37627261	     23.52376827	      3.82043861	    -10.13510931	    -17.69151232	     15.27397408	     -3.70693244	     -8.55599631	     -3.64385120	     -7.55165170	    -17.02457035	     25.02343785	     -2.86463225	    -12.56713636	      4.06532428	     -1.81967537
      1.48000000	     -1.91861055	     -5.51544987	    -26.97228235	     -0.84550566	      0.88723642	     -0.37304666	     23.44770767	      3.89984472	    -10.45100886	    -17.46170030	     15.24340317	     -3.70916329	     -9.03503622	     -3.89493328	     -7.35885298	    -17.09476574	     25.11378698	     -2.58064312	    -12.70334305	      4.26388955	     -1.93125046
      1.49000000	     -1.88207584	     -5.67238927	    -26.70666539	     -0.84041517	      0.88618302	     -0.36976858	     23.39731522	      3.94780153	    -10.81592058	    -17.44803675	     15.22785925	     -3.82128778	     -9.49139398	     -4.14272962	     -7.10319367	    -17.20465152	     25.25360285	     -2.40219286	    -12.82907127	      4.46575031	     -2.09834426
